<?xml version="1.0" encoding="utf-8"?>
<!-- Generator: Adobe Illustrator 21.0.0, SVG Export Plug-In . SVG Version: 6.00 Build 0)  -->
<svg version="1.1" id="Layer_1" xmlns="http://www.w3.org/2000/svg" xmlns:xlink="http://www.w3.org/1999/xlink" x="0px" y="0px"
	 viewBox="0 0 1024 1024" style="enable-background:new 0 0 1024 1024;" xml:space="preserve">
<style type="text/css">
	.st0{fill:none;stroke:#FFFFFF;stroke-miterlimit:10;}
</style>
<circle class="st0" cx="512" cy="511" r="442"/>
<g id="Clock_Watch_Icon">
	<circle class="st0" cx="511" cy="512" r="271"/>
	<g>
		<path class="st0" d="M392.6,424.2L515.8,504c4.3,2.8,5.6,8.6,2.8,12.9c-2.7,4.1-8,5.4-12.3,3.1l-129.1-69.7
			c-7.4-4-10.1-13.2-6.2-20.6c4-7.4,13.2-10.1,20.6-6.2C391.9,423.7,392.3,424,392.6,424.2z"/>
	</g>
	<g>
		<g>
			<path class="st0" d="M717.2,410.7L515.7,520.1c-4.5,2.5-10.2,0.8-12.7-3.8c-2.4-4.4-0.9-9.9,3.3-12.4L702,384.4
				c7.2-4.4,16.5-2.1,20.9,5c4.4,7.2,2.1,16.5-5,20.9C717.6,410.4,717.4,410.6,717.2,410.7z"/>
		</g>
	</g>
	<path class="st0" d="M528.5,512c0-6.2-3.3-11.7-8.2-14.8v-31.9h-18.7v31.9c-4.9,3.1-8.2,8.5-8.2,14.8c0,6.2,3.3,11.7,8.2,14.8V755
		h18.7V526.8C525.2,523.7,528.5,518.2,528.5,512z"/>
</g>
</svg>
